# xmcd
#
# Track frame offsets:
#	150
#	25423
#	51521
#	75508
#	114273
#	138196
#	160243
#	179134
#
# Disc length: 2603 seconds
#
# Revision: 1
# Processed by: cddbd v1.5.2PL0 Copyright (c) Steve Scherf et al.
# Submitted via: audiograbber 1.83.01
#
DISCID=660a2908
DTITLE=Eagles - Take It Easy - Live In The USA CD09
DYEAR=1900
DGENRE=Rock
TTITLE0=The boys of summer
TTITLE1=The end of the innocence
TTITLE2=One of these nights
TTITLE3=The last resort
TTITLE4=Well
TTITLE5=Margaritaville
TTITLE6=Volcano
TTITLE7=Don Henley talks
EXTD=
EXTT0=
EXTT1=
EXTT2=
EXTT3=
EXTT4=
EXTT5=
EXTT6=
EXTT7=
PLAYORDER=
